<?xml version="1.0" encoding="UTF-8" standalone="no"?>
<!-- Created with Inkscape (http://www.inkscape.org/) -->

<svg
   xmlns:dc="http://purl.org/dc/elements/1.1/"
   xmlns:cc="http://creativecommons.org/ns#"
   xmlns:rdf="http://www.w3.org/1999/02/22-rdf-syntax-ns#"
   xmlns:svg="http://www.w3.org/2000/svg"
   xmlns="http://www.w3.org/2000/svg"
   xmlns:sodipodi="http://sodipodi.sourceforge.net/DTD/sodipodi-0.dtd"
   xmlns:inkscape="http://www.inkscape.org/namespaces/inkscape"
   width="67.17514"
   height="66.922607"
   id="svg3224"
   version="1.1"
   inkscape:version="0.48.4 r9939"
   sodipodi:docname="ResearchGate_2.svg">
  <defs
     id="defs3226" />
  <sodipodi:namedview
     id="base"
     pagecolor="#ffffff"
     bordercolor="#666666"
     borderopacity="1.0"
     inkscape:pageopacity="0.0"
     inkscape:pageshadow="2"
     inkscape:zoom="7.919596"
     inkscape:cx="43.585748"
     inkscape:cy="26.136422"
     inkscape:document-units="px"
     inkscape:current-layer="layer1"
     showgrid="false"
     fit-margin-top="0"
     fit-margin-left="0"
     fit-margin-right="0"
     fit-margin-bottom="0"
     inkscape:window-width="959"
     inkscape:window-height="993"
     inkscape:window-x="1928"
     inkscape:window-y="0"
     inkscape:window-maximized="0" />
  <metadata
     id="metadata3229">
    <rdf:RDF>
      <cc:Work
         rdf:about="">
        <dc:format>image/svg+xml</dc:format>
        <dc:type
           rdf:resource="http://purl.org/dc/dcmitype/StillImage" />
        <dc:title />
      </cc:Work>
    </rdf:RDF>
  </metadata>
  <g
     inkscape:label="Layer 1"
     inkscape:groupmode="layer"
     id="layer1"
     transform="translate(-38.512068,-856.89773)">
    <g
       id="g2994"
       transform="matrix(0.41734976,0,0,0.41753089,22.125586,499.8922)">
      <path
         inkscape:connector-curvature="0"
         clip-path="none"
         id="rect5651"
         d="m 46.428571,864.41575 144.374999,0 0,144.37505 -144.374999,0 z"
         style="fill:#666666;fill-opacity:1;stroke:none;display:inline" />
      <g
         id="text5639"
         style="font-size:40px;font-style:normal;font-weight:normal;line-height:125%;letter-spacing:0px;word-spacing:0px;fill:#000000;fill-opacity:1;stroke:none;display:inline;font-family:sans-serif"
         transform="translate(-248.27681,683.99105)">
        <path
           inkscape:connector-curvature="0"
           id="path5673"
           style="font-size:112.5px;font-style:normal;font-variant:normal;font-weight:bold;font-stretch:condensed;fill:#ffffff;font-family:Helvetica Neue;-inkscape-font-specification:Helvetica Neue Bold Condensed"
           d="m 311.125,214.03721 0,80.325 16.2,0 0,-33.975 8.6625,0 q 5.0625,0 7.2,2.7 2.1375,2.7 2.3625,7.425 l 0.45,15.4125 q 0.1125,2.3625 0.45,4.6125 0.3375,2.1375 1.575,3.825 l 17.55,0 0,-0.675 q -2.25,-1.2375 -2.925,-4.6125 -0.45,-3.375 -0.675,-9.7875 -0.1125,-3.2625 -0.225,-5.85 -0.1125,-2.7 -0.3375,-4.95 -0.675,-6.75 -3.4875,-9.7875 -2.8125,-3.0375 -8.8875,-3.9375 l 0,-0.225 q 6.8625,-1.4625 10.125,-6.525 3.2625,-5.175 3.2625,-13.275 0,-10.4625 -5.625,-15.525 -5.625,-5.175 -15.75,-5.175 l -29.925,0 z m 16.2,35.1 0,-23.175 7.65,0 q 11.25,0 11.25,11.1375 0,6.525 -3.15,9.3375 -3.15,2.7 -9,2.7 l -6.75,0 z" />
      </g>
      <g
         id="text5644"
         style="font-size:40px;font-style:normal;font-weight:normal;line-height:125%;letter-spacing:0px;word-spacing:0px;fill:#90cc41;fill-opacity:1;stroke:none;display:inline;font-family:sans-serif"
         transform="translate(-248.27681,683.99105)">
        <path
           inkscape:connector-curvature="0"
           id="path5676"
           style="font-size:112.5px;font-style:normal;font-variant:normal;font-weight:bold;font-stretch:condensed;fill:#90cc41;fill-opacity:1;font-family:Helvetica Neue;-inkscape-font-specification:Helvetica Neue Bold Condensed"
           d="m 407.7875,237.88721 15.525,0 q 0,-12.2625 -5.85,-18.7875 -5.85,-6.6375 -19.125,-6.6375 -7.7625,0 -12.9375,2.5875 -5.175,2.5875 -8.325,7.7625 -3.15,5.0625 -4.5,12.7125 -1.2375,7.65 -1.2375,17.775 0,10.4625 0.9,18.45 0.9,7.875 3.4875,13.275 2.7,5.4 7.3125,7.9875 4.725,2.5875 12.15,2.5875 5.7375,0 9.7875,-1.9125 4.1625,-2.025 7.0875,-6.75 l 0.225,0 0,7.425 11.925,0 0,-43.3125 -26.2125,0 0,11.925 10.6875,0 0,8.2125 q 0,3.2625 -1.0125,5.7375 -1.0125,2.3625 -2.5875,3.9375 -1.4625,1.575 -3.2625,2.3625 -1.6875,0.7875 -3.15,0.7875 -3.4875,0 -5.7375,-2.1375 -2.1375,-2.25 -3.375,-6.3 -1.125,-4.1625 -1.575,-10.0125 -0.45,-5.85 -0.45,-13.05 0,-15.075 2.5875,-21.6 2.5875,-6.525 8.4375,-6.525 2.475,0 4.1625,1.35 1.8,1.2375 2.925,3.2625 1.125,1.9125 1.575,4.275 0.5625,2.3625 0.5625,4.6125 z" />
      </g>
    </g>
    <rect
       style="fill:none"
       id="rect3308"
       width="159.6041"
       height="160.61427"
       x="38.385799"
       y="856.89771" />
    <rect
       style="fill:none"
       id="rect3010"
       width="67.17514"
       height="66.922607"
       x="0.12626907"
       y="1.9346438e-05"
       transform="translate(38.385799,856.89771)" />
  </g>
</svg>
