<?xml version="1.0" encoding="UTF-8"?>
<svg width="100px" height="70px" viewBox="0 0 100 70" version="1.1" xmlns="http://www.w3.org/2000/svg" xmlns:xlink="http://www.w3.org/1999/xlink">
    <!-- Generator: Sketch 47.1 (45422) - http://www.bohemiancoding.com/sketch -->
    <title>IKON SITAT MED NAVN</title>
    <desc>Created with Sketch.</desc>
    <defs></defs>
    <g id="Skisser-områdesider" stroke="none" stroke-width="1" fill="none" fill-rule="evenodd">
        <g id="IKON-SITAT-MED-NAVN">
            <g id="Group" transform="translate(33.000000, 33.000000)" stroke="#333333" stroke-width="2">
                <path d="M0,0.5 L34,0.5" id="Path-2"></path>
                <path d="M0,5.5 L34,5.5" id="Path-2"></path>
                <path d="M0,10.5 L34,10.5" id="Path-2"></path>
                <path d="M11,15.5 L23,15.5" id="Path-2"></path>
            </g>
            <path d="M49.4827586,23 L49.4827586,24.1396957 C49.1818237,24.3092292 48.9514897,24.5212373 48.7915136,24.7754158 C48.6317805,25.0298986 48.5108719,25.296856 48.429456,25.5761663 C48.3481009,25.8556592 48.307393,26.1680122 48.307393,26.513286 L49.4827586,26.513286 L49.4827586,29 L47,29 L47,27.4552738 C47,26.5260041 47.0876132,25.8179919 47.2633256,25.3312982 C47.4388558,24.8447262 47.7101408,24.3972211 48.076816,23.9889655 C48.4436127,23.5808925 48.9123007,23.2511968 49.4827586,23 L49.4827586,23 Z M53,23 L53,24.1396957 C52.6990872,24.3092292 52.4687701,24.5212373 52.3086842,24.7754158 C52.1489629,25.0298986 52.0281846,25.296856 51.9467747,25.5761663 C51.8652433,25.8556592 51.8245384,26.1680122 51.8245384,26.513286 L53,26.513286 L53,29 L50.5172414,29 L50.5172414,27.4552738 C50.5172414,26.5260041 50.6049696,25.8179919 50.7805477,25.3312982 C50.956065,24.8447262 51.2258112,24.3972211 51.589361,23.9889655 C51.9529716,23.5808925 52.4230833,23.2511968 53,23 L53,23 Z" id="&quot;" fill="#333333" transform="translate(50.000000, 26.000000) rotate(-180.000000) translate(-50.000000, -26.000000) "></path>
            <path d="M19,61.5 L81,61.5" id="Path-2" stroke="#DFDFDF" stroke-width="2"></path>
            <path d="M19,65.5 L81,65.5" id="Path-2" stroke="#DFDFDF" stroke-width="2"></path>
            <path d="M19,5.5 L81,5.5" id="Path-2" stroke="#DFDFDF" stroke-width="2"></path>
            <path d="M19,9.5 L81,9.5" id="Path-2" stroke="#DFDFDF" stroke-width="2"></path>
        </g>
    </g>
</svg>