<?xml version="1.0" encoding="UTF-8" standalone="no"?>
<!DOCTYPE svg PUBLIC "-//W3C//DTD SVG 1.1//EN"
 "http://www.w3.org/Graphics/SVG/1.1/DTD/svg11.dtd">
<!-- Generated by graphviz version 2.38.0 (20140413.2041)
 -->
<!-- Title: %3 Pages: 1 -->
<svg width="836pt" height="908pt"
 viewBox="0.00 0.00 835.84 908.00" xmlns="http://www.w3.org/2000/svg" xmlns:xlink="http://www.w3.org/1999/xlink">
<g id="graph0" class="graph" transform="scale(1 1) rotate(0) translate(4 904)">
<title>%3</title>
<polygon fill="white" stroke="none" points="-4,4 -4,-904 831.84,-904 831.84,4 -4,4"/>
<!-- uib_ansatte -->
<g id="node1" class="node"><title>uib_ansatte</title>
<polygon fill="none" stroke="black" points="196.365,-655 134.517,-655 134.517,-619 196.365,-619 196.365,-655"/>
<text text-anchor="middle" x="165.441" y="-632.8" font-family="Helvetica,sans-Serif" font-size="14.00">ansatte</text>
</g>
<!-- uib_api -->
<g id="node2" class="node"><title>uib_api</title>
<polygon fill="none" stroke="black" points="619.62,-64 565.62,-64 565.62,-28 619.62,-28 619.62,-64"/>
<text text-anchor="middle" x="592.62" y="-41.8" font-family="Helvetica,sans-Serif" font-size="14.00">api</text>
</g>
<!-- uib_article -->
<g id="node3" class="node"><title>uib_article</title>
<polygon fill="none" stroke="black" points="726.033,-157 672.033,-157 672.033,-121 726.033,-121 726.033,-157"/>
<text text-anchor="middle" x="699.033" y="-134.8" font-family="Helvetica,sans-Serif" font-size="14.00">article</text>
</g>
<!-- uib_api&#45;&gt;uib_article -->
<g id="edge1" class="edge"><title>uib_api&#45;&gt;uib_article</title>
<path fill="none" stroke="black" d="M618.719,-64.0818C624.52,-68.4937 630.585,-73.3003 636.033,-78 648.853,-89.0595 662.337,-102.133 673.443,-113.335"/>
<polygon fill="black" stroke="black" points="671.213,-116.058 680.716,-120.743 676.208,-111.155 671.213,-116.058"/>
</g>
<!-- uib_area -->
<g id="node4" class="node"><title>uib_area</title>
<polygon fill="none" stroke="black" points="192.441,-326 138.441,-326 138.441,-290 192.441,-290 192.441,-326"/>
<text text-anchor="middle" x="165.441" y="-303.8" font-family="Helvetica,sans-Serif" font-size="14.00">area</text>
</g>
<!-- uib_article&#45;&gt;uib_area -->
<g id="edge7" class="edge"><title>uib_article&#45;&gt;uib_area</title>
<path fill="none" stroke="black" d="M671.739,-144.793C631.846,-148 553.639,-148 487.206,-148 374.137,-148 374.137,-148 374.137,-148 306.523,-148 288.378,-169.966 237.068,-214 214.853,-233.066 196.424,-260.672 183.968,-281.186"/>
<polygon fill="black" stroke="black" points="180.96,-279.396 178.838,-289.776 186.97,-282.985 180.96,-279.396"/>
</g>
<!-- uib_urlfilter -->
<g id="node8" class="node"><title>uib_urlfilter</title>
<polygon fill="none" stroke="black" points="823.943,-880 765.93,-880 765.93,-844 823.943,-844 823.943,-880"/>
<text text-anchor="middle" x="794.937" y="-857.8" font-family="Helvetica,sans-Serif" font-size="14.00">urlfilter</text>
</g>
<!-- uib_article&#45;&gt;uib_urlfilter -->
<g id="edge9" class="edge"><title>uib_article&#45;&gt;uib_urlfilter</title>
<path fill="none" stroke="black" d="M702.401,-157.234C715.062,-254.714 774.762,-714.366 790.256,-833.66"/>
<polygon fill="black" stroke="black" points="786.816,-834.35 791.575,-843.816 793.758,-833.448 786.816,-834.35"/>
</g>
<!-- uib_external -->
<g id="node9" class="node"><title>uib_external</title>
<polygon fill="none" stroke="black" points="827.743,-157 762.13,-157 762.13,-121 827.743,-121 827.743,-157"/>
<text text-anchor="middle" x="794.937" y="-134.8" font-family="Helvetica,sans-Serif" font-size="14.00">external</text>
</g>
<!-- uib_article&#45;&gt;uib_external -->
<g id="edge8" class="edge"><title>uib_article&#45;&gt;uib_external</title>
<path fill="none" stroke="black" d="M726.191,-132.877C734.148,-132.364 743.103,-132.166 751.833,-132.282"/>
<polygon fill="black" stroke="black" points="751.81,-135.783 761.903,-132.562 752.005,-128.785 751.81,-135.783"/>
</g>
<!-- uib_area&#45;&gt;uib_article -->
<g id="edge2" class="edge"><title>uib_area&#45;&gt;uib_article</title>
<path fill="none" stroke="black" d="M172.362,-289.848C182.797,-265.193 206.3,-222.406 237.068,-196 288.378,-151.966 306.523,-130 374.137,-130 374.137,-130 374.137,-130 487.206,-130 548.449,-130 619.698,-130 661.711,-132.513"/>
<polygon fill="black" stroke="black" points="661.521,-136.008 671.739,-133.207 662.005,-129.025 661.521,-136.008"/>
</g>
<!-- uib_feed -->
<g id="node5" class="node"><title>uib_feed</title>
<polygon fill="none" stroke="black" points="619.62,-231 565.62,-231 565.62,-195 619.62,-195 619.62,-231"/>
<text text-anchor="middle" x="592.62" y="-208.8" font-family="Helvetica,sans-Serif" font-size="14.00">feed</text>
</g>
<!-- uib_area&#45;&gt;uib_feed -->
<g id="edge3" class="edge"><title>uib_area&#45;&gt;uib_feed</title>
<path fill="none" stroke="black" d="M177.139,-289.974C189.181,-271.488 210.568,-243.579 237.068,-230 341.968,-176.25 488.035,-193.328 555.197,-205.401"/>
<polygon fill="black" stroke="black" points="554.807,-208.889 565.28,-207.284 556.093,-202.008 554.807,-208.889"/>
</g>
<!-- uib_field -->
<g id="node6" class="node"><title>uib_field</title>
<polygon fill="none" stroke="black" points="402.137,-526 348.137,-526 348.137,-490 402.137,-490 402.137,-526"/>
<text text-anchor="middle" x="375.137" y="-503.8" font-family="Helvetica,sans-Serif" font-size="14.00">field</text>
</g>
<!-- uib_area&#45;&gt;uib_field -->
<g id="edge4" class="edge"><title>uib_area&#45;&gt;uib_field</title>
<path fill="none" stroke="black" d="M168.649,-326.09C173.874,-360.735 190.286,-436.509 237.068,-476 265.214,-499.759 307.733,-506.634 337.943,-508.27"/>
<polygon fill="black" stroke="black" points="337.948,-511.772 348.072,-508.649 338.21,-504.777 337.948,-511.772"/>
</g>
<!-- uib_setup -->
<g id="node7" class="node"><title>uib_setup</title>
<polygon fill="none" stroke="black" points="291.068,-574 237.068,-574 237.068,-538 291.068,-538 291.068,-574"/>
<text text-anchor="middle" x="264.068" y="-551.8" font-family="Helvetica,sans-Serif" font-size="14.00">setup</text>
</g>
<!-- uib_area&#45;&gt;uib_setup -->
<g id="edge5" class="edge"><title>uib_area&#45;&gt;uib_setup</title>
<path fill="none" stroke="black" d="M170.721,-326.079C179.908,-363.271 203.447,-450.521 237.068,-518 238.953,-521.783 241.169,-525.624 243.498,-529.339"/>
<polygon fill="black" stroke="black" points="240.591,-531.289 249.036,-537.687 246.425,-527.419 240.591,-531.289"/>
</g>
<!-- uib_area&#45;&gt;uib_urlfilter -->
<g id="edge6" class="edge"><title>uib_area&#45;&gt;uib_urlfilter</title>
<path fill="none" stroke="black" d="M170.994,-326.245C184.261,-379.331 222.849,-533.106 237.068,-583 273.708,-711.561 245.783,-763.873 327.068,-870 342.153,-889.694 349.33,-900 374.137,-900 374.137,-900 374.137,-900 593.62,-900 650.93,-900 715.874,-884.8 755.871,-873.627"/>
<polygon fill="black" stroke="black" points="757.073,-876.924 765.728,-870.813 755.151,-870.193 757.073,-876.924"/>
</g>
<!-- uib_setup&#45;&gt;uib_field -->
<g id="edge30" class="edge"><title>uib_setup&#45;&gt;uib_field</title>
<path fill="none" stroke="black" d="M291.193,-544.503C305.389,-538.255 323.148,-530.44 338.587,-523.645"/>
<polygon fill="black" stroke="black" points="340.105,-526.801 347.848,-519.57 337.285,-520.394 340.105,-526.801"/>
</g>
<!-- uib_setup&#45;&gt;uib_urlfilter -->
<g id="edge37" class="edge"><title>uib_setup&#45;&gt;uib_urlfilter</title>
<path fill="none" stroke="black" d="M266.301,-574.074C270.588,-631.216 286.84,-806.355 327.068,-843 379.401,-890.67 414.417,-862 485.206,-862 485.206,-862 485.206,-862 593.62,-862 649.966,-862 715.228,-862 755.55,-862"/>
<polygon fill="black" stroke="black" points="755.739,-865.5 765.739,-862 755.739,-858.5 755.739,-865.5"/>
</g>
<!-- uib_breadcrumb -->
<g id="node10" class="node"><title>uib_breadcrumb</title>
<polygon fill="none" stroke="black" points="420.341,-102 329.934,-102 329.934,-66 420.341,-66 420.341,-102"/>
<text text-anchor="middle" x="375.137" y="-79.8" font-family="Helvetica,sans-Serif" font-size="14.00">breadcrumb</text>
</g>
<!-- uib_setup&#45;&gt;uib_breadcrumb -->
<g id="edge26" class="edge"><title>uib_setup&#45;&gt;uib_breadcrumb</title>
<path fill="none" stroke="black" d="M269.051,-537.964C278.779,-493.991 304.599,-377.777 327.068,-281 341.062,-220.73 358.056,-150.243 367.314,-112.057"/>
<polygon fill="black" stroke="black" points="370.754,-112.722 369.712,-102.179 363.952,-111.071 370.754,-112.722"/>
</g>
<!-- uib_content_list -->
<g id="node13" class="node"><title>uib_content_list</title>
<polygon fill="none" stroke="black" points="418.458,-434 331.817,-434 331.817,-398 418.458,-398 418.458,-434"/>
<text text-anchor="middle" x="375.137" y="-411.8" font-family="Helvetica,sans-Serif" font-size="14.00">content_list</text>
</g>
<!-- uib_setup&#45;&gt;uib_content_list -->
<g id="edge27" class="edge"><title>uib_setup&#45;&gt;uib_content_list</title>
<path fill="none" stroke="black" d="M279.104,-537.984C297.979,-513.756 331.682,-470.495 353.462,-442.538"/>
<polygon fill="black" stroke="black" points="356.424,-444.431 359.809,-434.391 350.902,-440.129 356.424,-444.431"/>
</g>
<!-- uib_cristin -->
<g id="node14" class="node"><title>uib_cristin</title>
<polygon fill="none" stroke="black" points="402.137,-580 348.137,-580 348.137,-544 402.137,-544 402.137,-580"/>
<text text-anchor="middle" x="375.137" y="-557.8" font-family="Helvetica,sans-Serif" font-size="14.00">cristin</text>
</g>
<!-- uib_setup&#45;&gt;uib_cristin -->
<g id="edge28" class="edge"><title>uib_setup&#45;&gt;uib_cristin</title>
<path fill="none" stroke="black" d="M291.193,-557.437C305.121,-558.203 322.479,-559.158 337.71,-559.996"/>
<polygon fill="black" stroke="black" points="337.67,-563.499 347.848,-560.554 338.055,-556.51 337.67,-563.499"/>
</g>
<!-- uib_dbh -->
<g id="node16" class="node"><title>uib_dbh</title>
<polygon fill="none" stroke="black" points="402.137,-380 348.137,-380 348.137,-344 402.137,-344 402.137,-380"/>
<text text-anchor="middle" x="375.137" y="-357.8" font-family="Helvetica,sans-Serif" font-size="14.00">dbh</text>
</g>
<!-- uib_setup&#45;&gt;uib_dbh -->
<g id="edge29" class="edge"><title>uib_setup&#45;&gt;uib_dbh</title>
<path fill="none" stroke="black" d="M267.646,-537.886C273.169,-504.851 288.891,-434.075 327.068,-389 330.482,-384.97 334.658,-381.41 339.098,-378.308"/>
<polygon fill="black" stroke="black" points="341.171,-381.141 347.833,-372.903 337.487,-375.188 341.171,-381.141"/>
</g>
<!-- uib_filter -->
<g id="node19" class="node"><title>uib_filter</title>
<polygon fill="none" stroke="black" points="402.137,-634 348.137,-634 348.137,-598 402.137,-598 402.137,-634"/>
<text text-anchor="middle" x="375.137" y="-611.8" font-family="Helvetica,sans-Serif" font-size="14.00">filter</text>
</g>
<!-- uib_setup&#45;&gt;uib_filter -->
<g id="edge31" class="edge"><title>uib_setup&#45;&gt;uib_filter</title>
<path fill="none" stroke="black" d="M291.193,-570.371C305.523,-578.254 323.483,-588.135 339.023,-596.683"/>
<polygon fill="black" stroke="black" points="337.399,-599.784 347.848,-601.538 340.773,-593.651 337.399,-599.784"/>
</g>
<!-- uib_study -->
<g id="node20" class="node"><title>uib_study</title>
<polygon fill="none" stroke="black" points="513.206,-480 459.206,-480 459.206,-444 513.206,-444 513.206,-480"/>
<text text-anchor="middle" x="486.206" y="-457.8" font-family="Helvetica,sans-Serif" font-size="14.00">study</text>
</g>
<!-- uib_setup&#45;&gt;uib_study -->
<g id="edge36" class="edge"><title>uib_setup&#45;&gt;uib_study</title>
<path fill="none" stroke="black" d="M272.029,-574.34C281.11,-595.326 299.205,-628.642 327.068,-643 365.05,-662.572 388.44,-667.84 423.206,-643 472.204,-607.991 482.897,-531.789 484.966,-490.298"/>
<polygon fill="black" stroke="black" points="488.472,-490.18 485.335,-480.061 481.477,-489.928 488.472,-490.18"/>
</g>
<!-- uib_h2tabs -->
<g id="node22" class="node"><title>uib_h2tabs</title>
<polygon fill="none" stroke="black" points="404.171,-326 346.103,-326 346.103,-290 404.171,-290 404.171,-326"/>
<text text-anchor="middle" x="375.137" y="-303.8" font-family="Helvetica,sans-Serif" font-size="14.00">h2tabs</text>
</g>
<!-- uib_setup&#45;&gt;uib_h2tabs -->
<g id="edge32" class="edge"><title>uib_setup&#45;&gt;uib_h2tabs</title>
<path fill="none" stroke="black" d="M265.64,-537.927C267.8,-497.396 278.093,-397.876 327.068,-335 330.024,-331.205 333.674,-327.85 337.622,-324.91"/>
<polygon fill="black" stroke="black" points="339.544,-327.835 346.021,-319.45 335.73,-321.966 339.544,-327.835"/>
</g>
<!-- uib_media -->
<g id="node24" class="node"><title>uib_media</title>
<polygon fill="none" stroke="black" points="402.268,-834 348.006,-834 348.006,-798 402.268,-798 402.268,-834"/>
<text text-anchor="middle" x="375.137" y="-811.8" font-family="Helvetica,sans-Serif" font-size="14.00">media</text>
</g>
<!-- uib_setup&#45;&gt;uib_media -->
<g id="edge33" class="edge"><title>uib_setup&#45;&gt;uib_media</title>
<path fill="none" stroke="black" d="M265.316,-574.089C266.779,-616.167 275.686,-722.111 327.068,-789 330.44,-793.389 334.743,-797.186 339.372,-800.431"/>
<polygon fill="black" stroke="black" points="337.574,-803.433 347.927,-805.684 341.237,-797.469 337.574,-803.433"/>
</g>
<!-- uib_search -->
<g id="node28" class="node"><title>uib_search</title>
<polygon fill="none" stroke="black" points="404.158,-780 346.117,-780 346.117,-744 404.158,-744 404.158,-780"/>
<text text-anchor="middle" x="375.137" y="-757.8" font-family="Helvetica,sans-Serif" font-size="14.00">search</text>
</g>
<!-- uib_setup&#45;&gt;uib_search -->
<g id="edge34" class="edge"><title>uib_setup&#45;&gt;uib_search</title>
<path fill="none" stroke="black" d="M267.092,-574.034C271.826,-608.802 286.476,-685.989 327.068,-735 329.987,-738.523 333.491,-741.682 337.255,-744.486"/>
<polygon fill="black" stroke="black" points="335.498,-747.519 345.782,-750.067 339.331,-741.662 335.498,-747.519"/>
</g>
<!-- uib_service_links -->
<g id="node30" class="node"><title>uib_service_links</title>
<polygon fill="none" stroke="black" points="423.275,-726 326.999,-726 326.999,-690 423.275,-690 423.275,-726"/>
<text text-anchor="middle" x="375.137" y="-703.8" font-family="Helvetica,sans-Serif" font-size="14.00">service_links</text>
</g>
<!-- uib_setup&#45;&gt;uib_service_links -->
<g id="edge35" class="edge"><title>uib_setup&#45;&gt;uib_service_links</title>
<path fill="none" stroke="black" d="M271.271,-574.357C280.436,-599.466 299.535,-644.941 327.068,-676 329.297,-678.514 331.764,-680.925 334.367,-683.215"/>
<polygon fill="black" stroke="black" points="332.485,-686.192 342.479,-689.709 336.859,-680.727 332.485,-686.192"/>
</g>
<!-- uib_external&#45;&gt;uib_article -->
<g id="edge18" class="edge"><title>uib_external&#45;&gt;uib_article</title>
<path fill="none" stroke="black" d="M761.903,-145.438C753.629,-145.795 744.665,-145.846 736.196,-145.589"/>
<polygon fill="black" stroke="black" points="736.342,-142.092 726.191,-145.123 736.017,-149.085 736.342,-142.092"/>
</g>
<!-- uib_external&#45;&gt;uib_area -->
<g id="edge17" class="edge"><title>uib_external&#45;&gt;uib_area</title>
<path fill="none" stroke="black" d="M780.655,-120.828C751.428,-83.1506 677.433,-0 593.62,-0 374.137,-0 374.137,-0 374.137,-0 302.22,-0 281.119,-29.1521 237.068,-86 191.199,-145.195 174.735,-234.894 169.135,-280.006"/>
<polygon fill="black" stroke="black" points="165.657,-279.622 167.989,-289.957 172.611,-280.424 165.657,-279.622"/>
</g>
<!-- uib_breadcrumb&#45;&gt;uib_article -->
<g id="edge11" class="edge"><title>uib_breadcrumb&#45;&gt;uib_article</title>
<path fill="none" stroke="black" d="M420.384,-86.3074C472.56,-89.7467 561.606,-97.8754 636.033,-116 644.692,-118.109 653.8,-121.053 662.289,-124.133"/>
<polygon fill="black" stroke="black" points="661.315,-127.506 671.906,-127.768 663.79,-120.958 661.315,-127.506"/>
</g>
<!-- uib_breadcrumb&#45;&gt;uib_area -->
<g id="edge10" class="edge"><title>uib_breadcrumb&#45;&gt;uib_area</title>
<path fill="none" stroke="black" d="M329.723,-83.894C300.192,-86.1129 262.336,-93.667 237.068,-116 188.718,-158.735 173.423,-237.518 168.617,-279.658"/>
<polygon fill="black" stroke="black" points="165.118,-279.478 167.586,-289.781 172.082,-280.188 165.118,-279.478"/>
</g>
<!-- uib_calendar -->
<g id="node11" class="node"><title>uib_calendar</title>
<polygon fill="none" stroke="black" points="81.6105,-326 12.203,-326 12.203,-290 81.6105,-290 81.6105,-326"/>
<text text-anchor="middle" x="46.9067" y="-303.8" font-family="Helvetica,sans-Serif" font-size="14.00">calendar</text>
</g>
<!-- uib_calendar&#45;&gt;uib_area -->
<g id="edge12" class="edge"><title>uib_calendar&#45;&gt;uib_area</title>
<path fill="none" stroke="black" d="M81.6133,-308C96.1098,-308 113.089,-308 127.888,-308"/>
<polygon fill="black" stroke="black" points="128.211,-311.5 138.211,-308 128.211,-304.5 128.211,-311.5"/>
</g>
<!-- uib_calendar3 -->
<g id="node12" class="node"><title>uib_calendar3</title>
<polygon fill="none" stroke="black" points="85.8976,-598 7.91593,-598 7.91593,-562 85.8976,-562 85.8976,-598"/>
<text text-anchor="middle" x="46.9067" y="-575.8" font-family="Helvetica,sans-Serif" font-size="14.00">calendar3</text>
</g>
<!-- uib_content_list&#45;&gt;uib_area -->
<g id="edge13" class="edge"><title>uib_content_list&#45;&gt;uib_area</title>
<path fill="none" stroke="black" d="M337.291,-397.927C309.585,-384.223 270.765,-364.776 237.068,-347 225.338,-340.812 212.623,-333.866 201.256,-327.569"/>
<polygon fill="black" stroke="black" points="202.915,-324.487 192.474,-322.685 199.513,-330.604 202.915,-324.487"/>
</g>
<!-- uib_user -->
<g id="node15" class="node"><title>uib_user</title>
<polygon fill="none" stroke="black" points="513.206,-250 459.206,-250 459.206,-214 513.206,-214 513.206,-250"/>
<text text-anchor="middle" x="486.206" y="-227.8" font-family="Helvetica,sans-Serif" font-size="14.00">user</text>
</g>
<!-- uib_cristin&#45;&gt;uib_user -->
<g id="edge14" class="edge"><title>uib_cristin&#45;&gt;uib_user</title>
<path fill="none" stroke="black" d="M402.408,-552.343C410.288,-548.184 418.167,-542.51 423.206,-535 490.909,-434.108 411.087,-375.568 459.206,-264 459.993,-262.176 460.914,-260.371 461.932,-258.604"/>
<polygon fill="black" stroke="black" points="464.947,-260.394 467.648,-250.149 459.148,-256.473 464.947,-260.394"/>
</g>
<!-- uib_user&#45;&gt;uib_area -->
<g id="edge43" class="edge"><title>uib_user&#45;&gt;uib_area</title>
<path fill="none" stroke="black" d="M459.026,-228.469C412.435,-223.299 312.907,-217.33 237.068,-248 218.615,-255.463 201.502,-269.726 188.744,-282.473"/>
<polygon fill="black" stroke="black" points="186.165,-280.106 181.759,-289.741 191.212,-284.957 186.165,-280.106"/>
</g>
<!-- uib_user&#45;&gt;uib_feed -->
<g id="edge44" class="edge"><title>uib_user&#45;&gt;uib_feed</title>
<path fill="none" stroke="black" d="M513.285,-227.255C525.992,-224.942 541.482,-222.123 555.323,-219.605"/>
<polygon fill="black" stroke="black" points="556.3,-222.985 565.512,-217.751 555.047,-216.098 556.3,-222.985"/>
</g>
<!-- uib_field_bases -->
<g id="node18" class="node"><title>uib_field_bases</title>
<polygon fill="none" stroke="black" points="635.947,-285 549.292,-285 549.292,-249 635.947,-249 635.947,-285"/>
<text text-anchor="middle" x="592.62" y="-262.8" font-family="Helvetica,sans-Serif" font-size="14.00">field_bases</text>
</g>
<!-- uib_user&#45;&gt;uib_field_bases -->
<g id="edge45" class="edge"><title>uib_user&#45;&gt;uib_field_bases</title>
<path fill="none" stroke="black" d="M513.285,-240.742C521.354,-243.447 530.546,-246.528 539.725,-249.605"/>
<polygon fill="black" stroke="black" points="538.644,-252.934 549.238,-252.793 540.869,-246.296 538.644,-252.934"/>
</g>
<!-- uib_dbh&#45;&gt;uib_area -->
<g id="edge15" class="edge"><title>uib_dbh&#45;&gt;uib_area</title>
<path fill="none" stroke="black" d="M348.046,-355.216C311.255,-345.651 243.996,-328.164 202.463,-317.366"/>
<polygon fill="black" stroke="black" points="203.305,-313.968 192.746,-314.839 201.543,-320.743 203.305,-313.968"/>
</g>
<!-- uib_devel -->
<g id="node17" class="node"><title>uib_devel</title>
<polygon fill="none" stroke="black" points="192.441,-493 138.441,-493 138.441,-457 192.441,-457 192.441,-493"/>
<text text-anchor="middle" x="165.441" y="-470.8" font-family="Helvetica,sans-Serif" font-size="14.00">devel</text>
</g>
<!-- uib_devel&#45;&gt;uib_setup -->
<g id="edge16" class="edge"><title>uib_devel&#45;&gt;uib_setup</title>
<path fill="none" stroke="black" d="M190.047,-493.13C193.762,-496.062 197.539,-499.091 201.068,-502 212.391,-511.333 224.617,-521.878 235.196,-531.157"/>
<polygon fill="black" stroke="black" points="233.105,-533.979 242.922,-537.964 237.733,-528.727 233.105,-533.979"/>
</g>
<!-- uib_filter&#45;&gt;uib_feed -->
<g id="edge20" class="edge"><title>uib_filter&#45;&gt;uib_feed</title>
<path fill="none" stroke="black" d="M402.476,-605.782C410.168,-601.631 417.919,-596.104 423.206,-589 465.172,-532.613 436.361,-501.474 459.206,-435 490.229,-344.73 486.399,-311.877 549.206,-240 551.647,-237.206 554.447,-234.596 557.418,-232.186"/>
<polygon fill="black" stroke="black" points="559.519,-234.986 565.559,-226.282 555.409,-229.32 559.519,-234.986"/>
</g>
<!-- uib_filter&#45;&gt;uib_study -->
<g id="edge19" class="edge"><title>uib_filter&#45;&gt;uib_study</title>
<path fill="none" stroke="black" d="M402.538,-604.475C409.877,-600.367 417.414,-595.192 423.206,-589 450.077,-560.276 467.607,-517.723 476.958,-489.926"/>
<polygon fill="black" stroke="black" points="480.29,-490.998 480.035,-480.406 473.629,-488.845 480.29,-490.998"/>
</g>
<!-- uib_study&#45;&gt;uib_area -->
<g id="edge38" class="edge"><title>uib_study&#45;&gt;uib_area</title>
<path fill="none" stroke="black" d="M458.965,-463.007C426.706,-463.323 370.859,-460.838 327.068,-443 268.599,-419.182 215.677,-365.739 187.589,-333.7"/>
<polygon fill="black" stroke="black" points="190.174,-331.338 180.995,-326.047 184.871,-335.907 190.174,-331.338"/>
</g>
<!-- uib_testimonial -->
<g id="node31" class="node"><title>uib_testimonial</title>
<polygon fill="none" stroke="black" points="634.037,-419 551.203,-419 551.203,-383 634.037,-383 634.037,-419"/>
<text text-anchor="middle" x="592.62" y="-396.8" font-family="Helvetica,sans-Serif" font-size="14.00">testimonial</text>
</g>
<!-- uib_study&#45;&gt;uib_testimonial -->
<g id="edge39" class="edge"><title>uib_study&#45;&gt;uib_testimonial</title>
<path fill="none" stroke="black" d="M508.588,-443.938C518.287,-437.425 530.197,-430.076 541.937,-423.282"/>
<polygon fill="black" stroke="black" points="543.879,-426.204 550.842,-418.219 540.419,-420.119 543.879,-426.204"/>
</g>
<!-- uib_geography -->
<g id="node21" class="node"><title>uib_geography</title>
<polygon fill="none" stroke="black" points="88.0719,-652 5.74153,-652 5.74153,-616 88.0719,-616 88.0719,-652"/>
<text text-anchor="middle" x="46.9067" y="-629.8" font-family="Helvetica,sans-Serif" font-size="14.00">geography</text>
</g>
<!-- uib_h2tabs&#45;&gt;uib_area -->
<g id="edge21" class="edge"><title>uib_h2tabs&#45;&gt;uib_area</title>
<path fill="none" stroke="black" d="M346.059,-308C308.983,-308 243.634,-308 202.813,-308"/>
<polygon fill="black" stroke="black" points="202.746,-304.5 192.746,-308 202.746,-311.5 202.746,-304.5"/>
</g>
<!-- uib_market -->
<g id="node23" class="node"><title>uib_market</title>
<polygon fill="none" stroke="black" points="76.1933,-544 17.6202,-544 17.6202,-508 76.1933,-508 76.1933,-544"/>
<text text-anchor="middle" x="46.9067" y="-521.8" font-family="Helvetica,sans-Serif" font-size="14.00">market</text>
</g>
<!-- uib_market&#45;&gt;uib_ansatte -->
<g id="edge22" class="edge"><title>uib_market&#45;&gt;uib_ansatte</title>
<path fill="none" stroke="black" d="M76.5924,-540.022C82.6702,-543.744 88.7665,-548.11 93.8135,-553 115.333,-573.849 109.7,-587.791 129.813,-610 130.332,-610.572 130.863,-611.141 131.406,-611.707"/>
<polygon fill="black" stroke="black" points="129.264,-614.497 138.947,-618.796 134.059,-609.397 129.264,-614.497"/>
</g>
<!-- uib_market&#45;&gt;uib_area -->
<g id="edge23" class="edge"><title>uib_market&#45;&gt;uib_area</title>
<path fill="none" stroke="black" d="M57.6419,-507.788C78.1721,-469.383 125.989,-379.932 150.058,-334.906"/>
<polygon fill="black" stroke="black" points="153.188,-336.476 154.815,-326.006 147.014,-333.175 153.188,-336.476"/>
</g>
<!-- uib_newsarchive -->
<g id="node25" class="node"><title>uib_newsarchive</title>
<polygon fill="none" stroke="black" points="93.7204,-706 0.0930767,-706 0.0930767,-670 93.7204,-670 93.7204,-706"/>
<text text-anchor="middle" x="46.9067" y="-683.8" font-family="Helvetica,sans-Serif" font-size="14.00">newsarchive</text>
</g>
<!-- uib_nomail -->
<g id="node26" class="node"><title>uib_nomail</title>
<polygon fill="none" stroke="black" points="75.6485,-760 18.165,-760 18.165,-724 75.6485,-724 75.6485,-760"/>
<text text-anchor="middle" x="46.9067" y="-737.8" font-family="Helvetica,sans-Serif" font-size="14.00">nomail</text>
</g>
<!-- uib_redirect -->
<g id="node27" class="node"><title>uib_redirect</title>
<polygon fill="none" stroke="black" points="196.624,-601 134.258,-601 134.258,-565 196.624,-565 196.624,-601"/>
<text text-anchor="middle" x="165.441" y="-578.8" font-family="Helvetica,sans-Serif" font-size="14.00">redirect</text>
</g>
<!-- uib_redirect&#45;&gt;uib_setup -->
<g id="edge24" class="edge"><title>uib_redirect&#45;&gt;uib_setup</title>
<path fill="none" stroke="black" d="M196.749,-574.531C206.38,-571.84 217.124,-568.838 227.113,-566.047"/>
<polygon fill="black" stroke="black" points="228.091,-569.408 236.78,-563.346 226.207,-562.666 228.091,-569.408"/>
</g>
<!-- uib_sebra -->
<g id="node29" class="node"><title>uib_sebra</title>
<polygon fill="none" stroke="black" points="73.9067,-272 19.9067,-272 19.9067,-236 73.9067,-236 73.9067,-272"/>
<text text-anchor="middle" x="46.9067" y="-249.8" font-family="Helvetica,sans-Serif" font-size="14.00">sebra</text>
</g>
<!-- uib_sebra&#45;&gt;uib_area -->
<g id="edge25" class="edge"><title>uib_sebra&#45;&gt;uib_area</title>
<path fill="none" stroke="black" d="M74.0593,-266.119C90.2527,-273.622 111.259,-283.356 128.944,-291.551"/>
<polygon fill="black" stroke="black" points="127.831,-294.893 138.376,-295.922 130.774,-288.542 127.831,-294.893"/>
</g>
<!-- uib_testimonial&#45;&gt;uib_article -->
<g id="edge41" class="edge"><title>uib_testimonial&#45;&gt;uib_article</title>
<path fill="none" stroke="black" d="M600.796,-382.992C618.716,-338.026 665.521,-220.581 686.986,-166.72"/>
<polygon fill="black" stroke="black" points="690.355,-167.72 690.806,-157.134 683.853,-165.128 690.355,-167.72"/>
</g>
<!-- uib_testimonial&#45;&gt;uib_area -->
<g id="edge40" class="edge"><title>uib_testimonial&#45;&gt;uib_area</title>
<path fill="none" stroke="black" d="M574.079,-382.638C545.601,-354.311 486.125,-301.123 423.206,-281 347.318,-256.729 253.023,-279.181 202.471,-295.173"/>
<polygon fill="black" stroke="black" points="201.089,-291.942 192.666,-298.368 203.258,-298.597 201.089,-291.942"/>
</g>
<!-- uib_testimonial&#45;&gt;uib_study -->
<g id="edge42" class="edge"><title>uib_testimonial&#45;&gt;uib_study</title>
<path fill="none" stroke="black" d="M570.089,-419.162C556.31,-428.405 538.114,-439.313 522.282,-447.924"/>
<polygon fill="black" stroke="black" points="520.477,-444.919 513.285,-452.699 523.759,-451.103 520.477,-444.919"/>
</g>
<!-- uib_tkview -->
<g id="node32" class="node"><title>uib_tkview</title>
<polygon fill="none" stroke="black" points="74.3033,-814 19.5102,-814 19.5102,-778 74.3033,-778 74.3033,-814"/>
<text text-anchor="middle" x="46.9067" y="-791.8" font-family="Helvetica,sans-Serif" font-size="14.00">tkview</text>
</g>
<!-- uib_views -->
<g id="node33" class="node"><title>uib_views</title>
<polygon fill="none" stroke="black" points="73.9067,-380 19.9067,-380 19.9067,-344 73.9067,-344 73.9067,-380"/>
<text text-anchor="middle" x="46.9067" y="-357.8" font-family="Helvetica,sans-Serif" font-size="14.00">views</text>
</g>
<!-- uib_views&#45;&gt;uib_area -->
<g id="edge46" class="edge"><title>uib_views&#45;&gt;uib_area</title>
<path fill="none" stroke="black" d="M74.0593,-349.881C90.2527,-342.378 111.259,-332.644 128.944,-324.449"/>
<polygon fill="black" stroke="black" points="130.774,-327.458 138.376,-320.078 127.831,-321.107 130.774,-327.458"/>
</g>
<!-- uib_webdesk -->
<g id="node34" class="node"><title>uib_webdesk</title>
<polygon fill="none" stroke="black" points="201.196,-547 129.686,-547 129.686,-511 201.196,-511 201.196,-547"/>
<text text-anchor="middle" x="165.441" y="-524.8" font-family="Helvetica,sans-Serif" font-size="14.00">webdesk</text>
</g>
<!-- uib_webdesk&#45;&gt;uib_setup -->
<g id="edge47" class="edge"><title>uib_webdesk&#45;&gt;uib_setup</title>
<path fill="none" stroke="black" d="M201.326,-538.748C209.796,-541.114 218.864,-543.648 227.372,-546.025"/>
<polygon fill="black" stroke="black" points="226.458,-549.404 237.031,-548.725 228.342,-542.662 226.458,-549.404"/>
</g>
<!-- uibx -->
<g id="node35" class="node"><title>uibx</title>
<polygon fill="none" stroke="black" points="73.9067,-868 19.9067,-868 19.9067,-832 73.9067,-832 73.9067,-868"/>
<text text-anchor="middle" x="46.9067" y="-845.8" font-family="Helvetica,sans-Serif" font-size="14.00">uibx</text>
</g>
</g>
</svg>
